<?xml version="1.0" standalone="no"?>
<!DOCTYPE svg PUBLIC "-//W3C//DTD SVG 1.1//EN" "http://www.w3.org/Graphics/SVG/1.1/DTD/svg11.dtd" >
<svg xmlns="http://www.w3.org/2000/svg" width="100%" height="100%">
<metadata>
Created by FontXChange 20100429 at Thu Jul 16 12:57:45 2015
 By iMac
Copyright (c) 2009 by Roman Shamin &#38; Jovanny Lemonad. All rights reserved.
</metadata>
<defs>
<font id="HattoriHanzo-LightItalic" horiz-adv-x="163" >
  <font-face 
    font-family="Hattori Hanzo"
    font-weight="300"
    font-style="italic"
    font-stretch="normal"
    units-per-em="1000"
    panose-1="2 0 5 6 2 0 0 9 0 3"
    ascent="750"
    descent="-250"
    x-height="466"
    cap-height="700"
    bbox="-40 -231 2345 880"
    underline-thickness="50"
    underline-position="-50"
    slope="-12"
    stemh="61"
    unicode-range="U+0020-2265"
  />
<missing-glyph horiz-adv-x="250" 
 />
    <glyph glyph-name=".notdef" horiz-adv-x="250" 
 />
    <glyph glyph-name="afii10018" unicode="&#x411;" horiz-adv-x="551" 
d="M265 0h-215l73 700h423l-6 -61h-357l-23 -218h149c179 0 248 -71 233 -213c-13 -127 -104 -208 -277 -208zM271 61c98 0 189 21 203 151c14 132 -70 148 -172 148h-149l-31 -299h149z" />
    <glyph glyph-name="afii10019" unicode="&#x412;" horiz-adv-x="558" 
d="M541 527c-15 -141 -132 -149 -132 -149v-3s146 -15 130 -173c-14 -127 -83 -202 -263 -202h-226l73 700h204c174 0 224 -74 214 -173zM180 640l-26 -241h155c84 0 158 44 167 128c9 83 -43 113 -155 113h-141zM282 61c98 0 174 11 188 141c10 100 -56 136 -146 136h-176
l-29 -277h163z" />
    <glyph glyph-name="afii10020" unicode="&#x413;" horiz-adv-x="464" 
d="M123 700h394l-6 -61h-331l-67 -639h-63z" />
    <glyph glyph-name="afii10021" unicode="&#x414;" horiz-adv-x="627" 
d="M613 61l-26 -244h-44l-3 183h-464l-42 -183h-43l25 244h50c73 60 119 216 163 639h382l-67 -639h69zM287 639c-30 -285 -68 -488 -144 -578h338l61 578h-255z" />
    <glyph glyph-name="afii10022" unicode="&#x415;" horiz-adv-x="492" 
d="M462 0h-412l73 700h408l-6 -61h-345l-26 -247h294l-7 -61h-294l-28 -270h349z" />
    <glyph glyph-name="afii10024" unicode="&#x416;" horiz-adv-x="858" 
d="M767 190c17 -92 25 -141 84 -156l-15 -47c-87 0 -121 46 -141 203c-16 123 -59 143 -134 143h-66l-34 -333h-64l34 333h-67c-74 0 -122 -20 -163 -143c-53 -157 -96 -203 -184 -203l-4 47c63 15 81 64 115 156c38 97 69 153 140 177c-53 20 -63 63 -79 157
c-17 91 -36 130 -96 144l9 43c86 0 138 -27 159 -187c15 -121 42 -129 116 -129h61l32 305h64l-32 -305h60c75 0 104 8 145 129c53 160 111 187 196 187l2 -43c-65 -14 -91 -53 -126 -144c-36 -94 -56 -137 -114 -157c68 -24 86 -80 102 -177z" />
    <glyph glyph-name="afii10025" unicode="&#x417;" horiz-adv-x="524" 
d="M294 344h-109l6 60h106c97 0 147 58 155 131c8 78 -56 117 -153 117c-100 0 -178 -35 -178 -35l-13 39s100 55 209 55c134 0 214 -70 203 -178c-13 -119 -131 -155 -131 -155v-3s131 -25 115 -184c-14 -130 -127 -204 -261 -204c-129 0 -218 61 -218 61l22 41
s80 -43 190 -43c140 0 189 75 197 147c9 86 -28 151 -140 151z" />
    <glyph glyph-name="afii10026" unicode="&#x418;" horiz-adv-x="608" 
d="M123 103l437 597h71l-73 -700h-63l62 597l-436 -597h-71l73 700h63z" />
    <glyph glyph-name="afii10027" unicode="&#x419;" horiz-adv-x="608" 
d="M490 857h61c-7 -65 -65 -129 -168 -129c-117 0 -148 64 -141 129h61c-4 -36 17 -76 86 -76c65 0 97 41 101 76zM123 103l437 597h71l-73 -700h-63l62 597l-436 -597h-71l73 700h63z" />
    <glyph glyph-name="afii10028" unicode="&#x41a;" horiz-adv-x="539" 
d="M434 190c17 -92 39 -141 98 -156l-15 -47c-87 0 -135 46 -155 203c-15 123 -45 143 -120 143h-94l-34 -333h-64l73 700h64l-32 -305h86c74 0 103 8 144 129c53 160 111 187 197 187l1 -43c-64 -14 -91 -53 -126 -144c-36 -93 -63 -136 -116 -156c66 -24 77 -81 93 -178z
" />
    <glyph glyph-name="afii10029" unicode="&#x41b;" horiz-adv-x="604" 
d="M8 -12l-5 46c119 33 168 133 224 666h400l-73 -700h-63l67 639h-273c-50 -474 -93 -632 -277 -651z" />
    <glyph glyph-name="afii10030" unicode="&#x41c;" horiz-adv-x="730" 
d="M113 0h-63l73 700h63l207 -494l296 494h64l-73 -700h-64l58 559l-259 -427h-58l-185 435z" />
    <glyph glyph-name="afii10031" unicode="&#x41d;" horiz-adv-x="595" 
d="M522 391l32 309h64l-73 -700h-64l34 330h-368l-34 -330h-63l73 700h63l-32 -309h368z" />
    <glyph glyph-name="afii10032" unicode="&#x41e;" horiz-adv-x="647" 
d="M398 711c160 0 271 -112 245 -362s-161 -362 -321 -362s-272 112 -246 362s162 362 322 362zM329 48c110 0 220 80 243 301s-70 301 -180 301s-221 -80 -244 -301s71 -301 181 -301z" />
    <glyph glyph-name="afii10033" unicode="&#x41f;" horiz-adv-x="581" 
d="M123 700h481l-73 -700h-63l67 639h-354l-67 -639h-64z" />
    <glyph glyph-name="afii10035" unicode="&#x421;" horiz-adv-x="558" 
d="M352 48c105 0 175 46 175 46l16 -39s-81 -68 -220 -68c-141 0 -276 83 -247 356c30 291 193 368 321 368c114 0 194 -62 194 -62l-24 -39s-68 40 -154 40c-132 0 -242 -76 -266 -307c-23 -215 61 -295 205 -295z" />
    <glyph glyph-name="afii10036" unicode="&#x422;" horiz-adv-x="521" 
d="M93 700h481l-6 -61h-209l-67 -639h-63l67 639h-209z" />
    <glyph glyph-name="afii10037" unicode="&#x423;" horiz-adv-x="573" 
d="M556 700h70l-281 -575c-42 -86 -87 -138 -161 -138c-36 0 -70 17 -93 41l22 37s32 -20 68 -20c37 0 66 19 104 98l1 5l-193 552h70l164 -469z" />
    <glyph glyph-name="afii10038" unicode="&#x424;" horiz-adv-x="753" 
d="M481 681c149 0 305 -78 280 -317c-25 -240 -198 -317 -347 -317l-8 -76h-67l8 76c-149 0 -304 77 -279 317c25 239 197 317 346 317l6 59h67zM354 108l54 512c-101 0 -246 -51 -267 -256c-22 -205 112 -256 213 -256zM421 108c101 0 245 51 267 256
c21 205 -112 256 -213 256z" />
    <glyph glyph-name="afii10039" unicode="&#x425;" horiz-adv-x="550" 
d="M313 413h10l217 287h77l-262 -347l195 -353h-77l-167 301l-229 -301h-77l269 353l-190 347h77z" />
    <glyph glyph-name="afii10040" unicode="&#x426;" horiz-adv-x="606" 
d="M50 0l73 700h64l-67 -639h340l67 639h63l-67 -639h69l-26 -244h-45l-2 183h-469z" />
    <glyph glyph-name="afii10041" unicode="&#x427;" horiz-adv-x="556" 
d="M477 342l38 358h64l-73 -700h-64l30 292s-85 -33 -203 -33c-144 0 -194 81 -181 202l25 239h64l-25 -239c-10 -95 30 -146 128 -146c128 0 197 27 197 27z" />
    <glyph glyph-name="afii10042" unicode="&#x428;" horiz-adv-x="815" 
d="M765 0h-715l73 700h64l-67 -639h262l67 639h63l-67 -639h262l67 639h64z" />
    <glyph glyph-name="afii10043" unicode="&#x429;" horiz-adv-x="854" 
d="M840 61l-26 -244h-44l-2 183h-718l73 700h64l-67 -639h262l67 639h63l-67 -639h263l67 639h63l-67 -639h69z" />
    <glyph glyph-name="afii10044" unicode="&#x42a;" horiz-adv-x="672" 
d="M77 639l6 61h238l-30 -288h124c180 0 262 -70 248 -204c-14 -138 -118 -208 -291 -208h-190l67 639h-172zM378 61c99 0 203 17 216 147c14 131 -84 144 -186 144h-124l-30 -291h124z" />
    <glyph glyph-name="afii10045" unicode="&#x42b;" horiz-adv-x="701" 
d="M724 700l-73 -700h-64l73 700h64zM227 0h-177l73 700h67l-30 -288h110c180 0 262 -70 248 -204c-14 -138 -118 -208 -291 -208zM233 61c98 0 203 17 216 147c14 131 -84 144 -186 144h-110l-30 -291h110z" />
    <glyph glyph-name="afii10046" unicode="&#x42c;" horiz-adv-x="527" 
d="M227 0h-177l73 700h66l-30 -288h111c179 0 262 -70 248 -204c-14 -138 -118 -208 -291 -208zM122 61h111c98 0 203 17 216 147c14 131 -84 144 -186 144h-111z" />
    <glyph glyph-name="afii10047" unicode="&#x42d;" horiz-adv-x="557" 
d="M317 711c128 0 268 -63 237 -354c-29 -273 -171 -370 -312 -370c-139 0 -217 68 -217 68l23 39s73 -46 178 -46c138 0 227 86 253 281h-319l6 60h319c14 205 -71 261 -197 261c-85 0 -162 -40 -162 -40l-15 39s91 62 206 62z" />
    <glyph glyph-name="afii10048" unicode="&#x42e;" horiz-adv-x="802" 
d="M566 711c160 0 258 -112 232 -362s-148 -362 -308 -362c-156 0 -253 106 -234 343h-108l-34 -330h-64l73 700h64l-32 -309h109c35 221 151 320 302 320zM497 48c110 0 204 80 227 301s-54 301 -164 301s-206 -80 -229 -301s56 -301 166 -301z" />
    <glyph glyph-name="afii10049" unicode="&#x42f;" horiz-adv-x="570" 
d="M398 700h195l-73 -700h-67l30 287h-64c-75 0 -159 -3 -195 -124c-48 -158 -127 -176 -200 -176l-1 46c61 20 95 38 128 130c25 73 55 117 101 141c-105 23 -149 87 -138 192c14 138 111 204 284 204zM489 348l31 291h-128c-99 0 -195 -13 -208 -143
c-14 -131 75 -148 177 -148h128z" />
    <glyph glyph-name="D" unicode="D" horiz-adv-x="572" 
d="M123 700h198c160 0 272 -111 247 -351c-25 -238 -160 -349 -320 -349h-198zM254 61c110 0 220 79 242 288c22 211 -71 290 -181 290h-134l-61 -578h134z" />
    <glyph glyph-name="F" unicode="F" horiz-adv-x="478" 
d="M123 700h408l-6 -61h-345l-26 -248h293l-7 -61h-293l-34 -330h-63z" />
    <glyph glyph-name="G" unicode="G" horiz-adv-x="588" 
d="M482 84l29 274h64l-32 -306s-81 -65 -220 -65c-141 0 -276 83 -247 356c29 277 193 368 321 368c114 0 194 -62 194 -62l-23 -39s-69 40 -155 40c-131 0 -242 -86 -265 -307c-23 -215 64 -295 199 -295c55 0 103 19 135 36z" />
    <glyph glyph-name="I" unicode="I" 
d="M186 700l-73 -700h-63l73 700h63z" />
    <glyph glyph-name="J" unicode="J" horiz-adv-x="226" 
d="M136 219l50 481h63l-50 -481c-9 -77 -42 -224 -194 -232l-2 46c72 20 119 59 133 186z" />
    <glyph glyph-name="K" unicode="K" horiz-adv-x="527" 
d="M139 252l-26 -252h-63l73 700h63l-37 -353l334 353h81l-295 -311l258 -389h-80l-225 339z" />
    <glyph glyph-name="L" unicode="L" horiz-adv-x="482" 
d="M462 0h-412l73 700h63l-67 -639h349z" />
    <glyph glyph-name="N" unicode="N" horiz-adv-x="608" 
d="M558 0h-71l-312 598l-62 -598h-63l73 700h71l311 -598l63 598h63z" />
    <glyph glyph-name="Q" unicode="Q" horiz-adv-x="654" 
d="M415 1l185 -127l-22 -30s-76 20 -256 143c-160 0 -272 112 -246 362s162 362 322 362s271 -112 245 -362c-21 -200 -112 -311 -228 -348zM148 349c-23 -221 71 -301 181 -301s219 80 242 301s-69 301 -179 301s-221 -80 -244 -301z" />
    <glyph glyph-name="R" unicode="R" horiz-adv-x="533" 
d="M503 0h-71l-115 288c-17 -1 -35 -2 -53 -2h-117l-30 -286h-67l73 700h184c172 0 262 -66 248 -204c-11 -100 -68 -168 -172 -196zM153 347h117c101 0 202 17 216 149c13 130 -87 143 -185 143h-117z" />
    <glyph glyph-name="S" unicode="S" horiz-adv-x="533" 
d="M546 666l-18 -43s-78 27 -170 27c-97 0 -182 -28 -192 -123c-9 -84 71 -107 155 -135c137 -47 213 -95 200 -217c-13 -120 -114 -188 -250 -188c-167 0 -236 65 -236 65l24 42s91 -46 192 -46c148 0 193 61 201 133c7 73 -49 106 -156 143s-212 76 -200 199
c13 122 114 188 247 188c116 0 203 -45 203 -45z" />
    <glyph glyph-name="U" unicode="U" horiz-adv-x="584" 
d="M607 700l-48 -462c-21 -198 -166 -251 -269 -251c-102 0 -236 53 -215 251l48 462h63l-48 -462c-14 -129 49 -190 159 -190s184 61 198 190l48 462h64z" />
    <glyph glyph-name="V" unicode="V" horiz-adv-x="584" 
d="M321 0h-58l-190 700h68l161 -596l287 596h68z" />
    <glyph glyph-name="W" unicode="W" horiz-adv-x="886" 
d="M473 634h72l112 -510l235 576h67l-285 -700h-59l-117 531l-227 -531h-59l-139 700h67l115 -576z" />
    <glyph glyph-name="Y" unicode="Y" horiz-adv-x="585" 
d="M587 700h71l-299 -430l-28 -270h-64l28 267l-222 433h71l190 -366z" />
    <glyph glyph-name="Z" unicode="Z" horiz-adv-x="515" 
d="M101 639l6 61h457l-6 -61l-455 -578h398l-6 -61h-475l6 61l455 578h-380z" />
    <glyph glyph-name="space" unicode=" " horiz-adv-x="250" 
 />
    <glyph glyph-name="afii10065" unicode="&#x430;" horiz-adv-x="443" 
d="M56 200c15 147 104 278 234 278c93 0 148 -46 148 -46l-45 -432h-49s-3 36 -2 71c-34 -32 -99 -76 -157 -76c-96 0 -145 60 -129 205zM117 200c-13 -120 21 -154 77 -154c43 0 101 33 151 87l29 274c-21 9 -45 17 -78 17c-97 0 -166 -98 -179 -224z" />
    <glyph glyph-name="afii10066" unicode="&#x431;" horiz-adv-x="467" 
d="M244 45c83 0 138 56 151 175c10 103 -23 166 -97 166c-73 0 -138 -61 -159 -115l-5 -51c-13 -120 30 -175 110 -175zM308 438c100 0 164 -76 149 -218c-15 -141 -91 -231 -219 -231c-106 0 -181 81 -165 231l14 140c25 230 144 283 283 313l128 27l6 -55l-99 -21
c-194 -41 -231 -104 -257 -264c34 45 88 78 160 78z" />
    <glyph glyph-name="afii10067" unicode="&#x432;" horiz-adv-x="435" 
d="M258 217h-125l-17 -167h131c84 0 109 36 114 85c6 56 -33 82 -103 82zM248 466h29c81 0 141 -36 132 -117c-8 -82 -82 -100 -82 -100l-1 -2s103 -12 92 -115c-9 -89 -79 -132 -158 -132h-210l33 320c10 96 88 146 165 146zM144 320l-5 -50h121c52 0 88 33 93 77
c5 50 -29 69 -94 69h-16c-50 0 -93 -36 -99 -96z" />
    <glyph glyph-name="afii10069" unicode="&#x434;" horiz-adv-x="464" 
d="M228 45c80 0 135 55 148 175l5 51c-9 54 -62 115 -135 115c-74 0 -121 -63 -131 -166c-13 -119 30 -175 113 -175zM248 438c72 0 118 -33 142 -78c16 150 -39 250 -258 285l18 55c197 -30 324 -120 301 -340l-14 -140c-16 -150 -109 -231 -215 -231
c-128 0 -184 90 -169 231c15 142 95 218 195 218z" />
    <glyph glyph-name="afii10070" unicode="&#x435;" horiz-adv-x="428" 
d="M290 478c95 0 154 -36 144 -131c-9 -82 -76 -128 -201 -128h-119c-13 -123 66 -177 140 -177c79 0 129 23 129 23l10 -35s-66 -41 -156 -41c-122 0 -200 87 -184 239c17 157 127 250 237 250zM373 348c6 55 -28 80 -89 80c-70 0 -140 -58 -165 -172c-2 0 73 13 119 13
c91 0 130 34 135 79z" />
    <glyph glyph-name="afii10072" unicode="&#x436;" horiz-adv-x="641" 
d="M399 466l-20 -194h38c43 0 80 10 98 67c39 120 81 133 143 133l4 -40c-34 -10 -63 -18 -83 -94c-8 -29 -21 -51 -42 -68c-23 -18 -44 -21 -44 -21l-1 -2s23 -3 40 -22s26 -46 30 -81c5 -72 31 -92 73 -104l-16 -45c-73 0 -106 25 -120 149c-9 75 -44 77 -97 77h-28
l-23 -221h-61l23 221h-28c-53 0 -88 -2 -113 -77c-40 -124 -79 -149 -152 -149l-6 45c44 12 74 32 95 104c10 35 25 62 46 81s44 22 44 22l1 2s-21 3 -40 21c-17 17 -26 39 -28 68c-4 76 -31 84 -63 94l12 40c62 0 102 -13 115 -133c6 -57 41 -67 84 -67h38l20 194h61z" />
    <glyph glyph-name="afii10073" unicode="&#x437;" horiz-adv-x="396" 
d="M216 217h-87l6 56h86c59 0 91 33 96 82c5 53 -37 71 -102 71c-68 0 -127 -23 -127 -23l-9 37s79 38 153 38c90 0 154 -42 146 -124c-9 -80 -89 -103 -89 -103v-2s91 -12 80 -123c-10 -89 -98 -137 -188 -137c-87 0 -158 41 -158 41l18 39s63 -27 138 -27
c94 0 123 41 128 85c6 58 -15 90 -91 90z" />
    <glyph glyph-name="afii10075" unicode="&#x439;" horiz-adv-x="457" 
d="M369 624h53c-6 -56 -55 -112 -142 -112c-100 0 -124 56 -118 112h52c-3 -31 13 -69 71 -69s81 39 84 69zM199 -11c-113 0 -142 84 -128 211l27 266h60l-27 -266c-10 -86 10 -160 78 -160c55 0 103 39 151 94l34 332h61l-48 -466h-49s-2 36 -2 71
c-32 -34 -89 -82 -157 -82z" />
    <glyph glyph-name="afii10076" unicode="&#x43a;" horiz-adv-x="415" 
d="M335 144c5 -72 33 -92 74 -104l-16 -45c-73 0 -107 25 -122 149c-8 75 -42 77 -95 77h-42l-23 -221h-61l48 466h61l-20 -194h52c43 0 81 10 99 67c39 120 80 133 142 133l4 -40c-34 -11 -62 -18 -82 -94c-7 -29 -22 -51 -42 -68c-24 -18 -44 -21 -44 -21l-1 -2
s22 -3 39 -22s25 -46 29 -81z" />
    <glyph glyph-name="afii10077" unicode="&#x43b;" horiz-adv-x="456" 
d="M11 -5l-7 45c79 21 115 96 149 426h301l-48 -466h-61l43 414h-179c-33 -314 -81 -404 -198 -419z" />
    <glyph glyph-name="afii10078" unicode="&#x43c;" horiz-adv-x="575" 
d="M110 0h-60l48 466h60l148 -324l207 324h60l-48 -466h-60l36 351l-170 -273h-60l-124 278z" />
    <glyph glyph-name="afii10079" unicode="&#x43d;" horiz-adv-x="447" 
d="M358 213h-226l-22 -213h-60l48 466h60l-20 -198h226l20 198h61l-48 -466h-61z" />
    <glyph glyph-name="afii10080" unicode="&#x43e;" horiz-adv-x="477" 
d="M290 478c106 0 198 -83 181 -245c-17 -161 -130 -244 -236 -244s-198 83 -181 244c17 162 130 245 236 245zM241 42c84 0 153 61 167 191c14 131 -47 192 -124 192c-73 0 -153 -61 -167 -192c-14 -130 43 -191 124 -191z" />
    <glyph glyph-name="afii10081" unicode="&#x43f;" horiz-adv-x="458" 
d="M306 478c113 0 143 -83 130 -210l-28 -268h-61l28 268c9 86 -11 159 -79 159c-55 0 -103 -39 -151 -94l-34 -333h-61l48 466h49s3 -35 2 -70c32 34 89 82 157 82z" />
    <glyph glyph-name="afii10082" unicode="&#x440;" horiz-adv-x="458" 
d="M27 -217l71 683h49s3 -36 2 -70c32 34 88 82 156 82c123 0 151 -110 139 -226c-21 -201 -118 -263 -237 -263c-41 0 -76 18 -94 34l-25 -240h-61zM380 252c9 87 -7 175 -86 175c-54 0 -101 -40 -149 -95l-27 -257c16 -15 44 -36 91 -36c75 0 151 19 171 213z" />
    <glyph glyph-name="afii10083" unicode="&#x441;" horiz-adv-x="396" 
d="M245 40c73 0 125 27 125 27l9 -37s-58 -41 -155 -41c-106 0 -187 86 -170 240c16 153 114 249 221 249c87 0 136 -41 136 -41l-16 -37s-48 26 -111 26c-87 0 -158 -82 -170 -197c-12 -113 44 -189 131 -189z" />
    <glyph glyph-name="afii10086" unicode="&#x444;" horiz-adv-x="579" 
d="M307 458l21 200h61l-21 -200c129 0 213 -56 194 -230c-16 -156 -113 -219 -242 -219l-23 -226h-61l23 226c-129 0 -212 63 -196 219c19 174 115 230 244 230zM301 406c-111 0 -160 -47 -174 -178c-12 -119 40 -167 138 -167zM326 61c98 0 161 48 173 167
c14 131 -26 178 -137 178z" />
    <glyph glyph-name="afii10088" unicode="&#x446;" horiz-adv-x="476" 
d="M411 -141l-3 151c-26 6 -44 30 -47 60c-31 -39 -94 -81 -162 -81c-113 0 -142 84 -128 211l27 266h60l-27 -266c-10 -86 10 -160 78 -160c55 0 103 39 151 94l34 332h61l-36 -345c-4 -41 6 -68 47 -68h5l-20 -194h-40z" />
    <glyph glyph-name="afii10089" unicode="&#x447;" horiz-adv-x="434" 
d="M348 238l23 228h61l-48 -466h-61l19 187s-63 -20 -141 -20c-92 0 -137 65 -128 148l15 151h61l-15 -145c-5 -48 5 -103 72 -103c78 0 142 20 142 20z" />
    <glyph glyph-name="afii10090" unicode="&#x448;" horiz-adv-x="699" 
d="M186 -12c-114 0 -129 83 -116 210l28 268h61l-28 -268c-9 -86 -3 -159 65 -159c54 0 91 38 136 93l35 334h61l-30 -287c-8 -76 3 -140 67 -140c54 0 92 39 136 93l35 334h61l-48 -466h-49s-3 34 -2 68c-28 -34 -76 -80 -143 -80c-72 0 -104 33 -115 95
c-25 -34 -77 -95 -154 -95z" />
    <glyph glyph-name="afii10091" unicode="&#x449;" horiz-adv-x="718" 
d="M697 466l-36 -346c-4 -41 6 -68 47 -68h5l-20 -194h-40l-4 151c-25 6 -43 30 -46 60c-31 -39 -94 -81 -148 -81c-72 0 -104 33 -115 95c-25 -34 -77 -95 -154 -95c-114 0 -129 83 -116 210l28 268h61l-28 -268c-9 -86 -3 -159 65 -159c54 0 91 38 136 93l35 334h61
l-30 -287c-8 -76 3 -140 67 -140c54 0 92 39 136 93l35 334h61z" />
    <glyph glyph-name="afii10092" unicode="&#x44a;" horiz-adv-x="490" 
d="M317 282c112 0 167 -53 157 -142c-9 -86 -77 -140 -186 -140h-160l43 411h-118l5 55h179l-19 -184h99zM194 52h99c85 0 117 44 121 88c5 43 -15 91 -102 91h-99z" />
    <glyph glyph-name="afii10093" unicode="&#x44b;" horiz-adv-x="558" 
d="M556 466l-48 -466h-60l48 466h60zM116 52h99c85 0 117 44 121 88c5 43 -15 91 -102 91h-99zM239 282c112 0 167 -53 157 -142c-9 -86 -77 -140 -186 -140h-160l48 466h61l-19 -184h99z" />
    <glyph glyph-name="afii10094" unicode="&#x44c;" horiz-adv-x="412" 
d="M116 52h99c85 0 117 44 121 88c5 43 -15 91 -102 91h-99zM239 282c112 0 167 -53 157 -142c-9 -86 -77 -140 -186 -140h-160l48 466h61l-19 -184h99z" />
    <glyph glyph-name="afii10095" unicode="&#x44d;" horiz-adv-x="390" 
d="M215 478c107 0 186 -83 170 -235c-17 -166 -118 -254 -225 -254c-91 0 -137 41 -137 41l17 37s42 -27 116 -27c90 0 144 71 162 181h-211l5 49c114 0 178 -8 209 -14c8 107 -43 170 -127 170c-63 0 -115 -26 -115 -26l-10 37s59 41 146 41z" />
    <glyph glyph-name="afii10096" unicode="&#x44e;" horiz-adv-x="599" 
d="M433 478c106 0 177 -83 160 -245c-17 -161 -109 -244 -215 -244c-104 0 -174 79 -162 232h-83l-23 -221h-60l48 466h60l-19 -190h85c27 133 112 202 209 202zM384 42c83 0 132 61 146 191c14 131 -27 192 -103 192c-73 0 -135 -61 -149 -192c-14 -130 25 -191 106 -191z
" />
    <glyph glyph-name="afii10097" unicode="&#x44f;" horiz-adv-x="418" 
d="M256 466h170l-48 -466h-60l19 190h-49c-52 0 -81 -2 -108 -75c-37 -97 -78 -120 -150 -120l-6 45c43 12 70 18 92 75c9 27 21 49 33 65c24 25 39 25 39 25v1s-28 1 -51 14c-40 21 -62 59 -57 112c9 81 87 134 176 134zM343 241l18 174h-110c-66 0 -108 -33 -114 -83
c-7 -75 54 -91 123 -91h83z" />
    <glyph glyph-name="afii10074" unicode="&#x438;" horiz-adv-x="457" 
d="M199 -11c-113 0 -142 84 -128 211l27 266h60l-27 -266c-10 -86 10 -160 78 -160c55 0 103 39 151 94l34 332h61l-48 -466h-49s-2 36 -2 71c-32 -34 -89 -82 -157 -82z" />
    <glyph glyph-name="b" unicode="b" horiz-adv-x="456" 
d="M272 478c111 0 197 -65 179 -231c-16 -152 -110 -258 -242 -258c-96 0 -156 46 -156 46l70 665h61l-27 -254c23 16 61 32 115 32zM203 43c101 0 174 73 187 204c13 122 -44 179 -135 179c-47 0 -82 -20 -104 -39l-34 -327c21 -9 50 -17 86 -17z" />
    <glyph glyph-name="d" unicode="d" horiz-adv-x="448" 
d="M469 683l-71 -683h-49s-3 36 -2 70c-32 -34 -88 -82 -156 -82c-123 0 -151 110 -139 226c21 201 118 263 237 263c41 0 76 -18 94 -34l25 240h61zM116 214c-9 -87 7 -175 86 -175c54 0 101 40 149 95l27 257c-16 15 -44 36 -91 36c-75 0 -151 -19 -171 -213z" />
    <glyph glyph-name="f" unicode="f" horiz-adv-x="301" 
d="M207 420l-44 -420c-9 -77 -25 -223 -175 -231l-3 38c71 19 104 66 118 193l43 413h-84l5 53h84l10 88c12 116 62 157 143 157c52 0 97 -37 97 -37l-16 -35s-45 22 -83 22s-72 -21 -81 -107l-10 -88h119l-5 -53c-52 0 -90 3 -118 7z" />
    <glyph glyph-name="g" unicode="g" horiz-adv-x="456" 
d="M301 424c-101 0 -174 -73 -187 -204c-13 -122 44 -179 135 -179c47 0 82 20 104 39l34 327c-21 9 -50 17 -86 17zM343 -10l4 31c-23 -16 -61 -32 -115 -32c-111 0 -197 65 -179 231c16 152 110 258 242 258c96 0 156 -46 156 -46l-47 -442c-12 -120 -77 -207 -207 -207
c-97 0 -146 41 -146 41l17 37s46 -27 119 -27c95 0 146 56 156 156z" />
    <glyph glyph-name="h" unicode="h" horiz-adv-x="452" 
d="M434 307l-32 -307h-61l32 307c8 78 -2 120 -71 120c-52 0 -106 -36 -156 -88l-35 -339h-61l73 700h61l-31 -296c35 33 96 74 160 74c113 0 131 -73 121 -171z" />
    <glyph glyph-name="i" unicode="i" horiz-adv-x="173" 
d="M104 466h61l-48 -466h-61zM183 579c-2 -20 -19 -35 -39 -35s-36 15 -34 35c2 19 21 35 41 35s34 -16 32 -35z" />
    <glyph glyph-name="j" unicode="j" horiz-adv-x="195" 
d="M78 0l48 466h61l-48 -466c-9 -77 -26 -223 -176 -231l-3 38c71 19 104 66 118 193zM205 579c-2 -20 -19 -35 -39 -35c-21 0 -36 15 -34 35c2 19 20 35 41 35c20 0 34 -16 32 -35z" />
    <glyph glyph-name="k" unicode="k" horiz-adv-x="417" 
d="M236 271l171 -271h-74l-142 226l-63 -63l-17 -163h-61l73 700h61l-48 -454l222 220h75z" />
    <glyph glyph-name="l" unicode="l" horiz-adv-x="184" 
d="M135 225c-11 -108 -19 -170 21 -199l-11 -37c-98 11 -82 131 -71 236l50 475h61z" />
    <glyph glyph-name="m" unicode="m" horiz-adv-x="699" 
d="M561 478c114 0 129 -83 116 -210l-28 -268h-61l28 268c9 86 3 159 -65 159c-54 0 -91 -38 -136 -93l-35 -334h-61l30 287c8 76 -3 140 -67 140c-54 0 -92 -39 -136 -93l-35 -334h-61l48 466h49s3 -34 2 -68c28 34 76 80 143 80c72 0 104 -33 115 -95c25 34 77 95 154 95z
" />
    <glyph glyph-name="n" unicode="n" horiz-adv-x="458" 
d="M306 478c113 0 143 -83 130 -210l-28 -268h-61l28 268c9 86 -11 159 -79 159c-55 0 -103 -39 -151 -94l-34 -333h-61l48 466h49s3 -35 2 -70c32 34 89 82 157 82z" />
    <glyph glyph-name="q" unicode="q" horiz-adv-x="456" 
d="M232 -11c-111 0 -197 65 -179 231c16 152 110 258 242 258c96 0 156 -46 156 -46l-68 -649h-61l25 238c-23 -16 -61 -32 -115 -32zM301 424c-101 0 -174 -73 -187 -204c-13 -122 44 -179 135 -179c47 0 82 20 104 39l34 327c-21 9 -50 17 -86 17z" />
    <glyph glyph-name="r" unicode="r" horiz-adv-x="318" 
d="M171 385c28 37 85 87 186 87l-7 -65c-172 0 -211 -136 -211 -136l-28 -271h-61l48 466h49s5 -75 1 -113l-1 -10s9 23 24 42z" />
    <glyph glyph-name="s" unicode="s" horiz-adv-x="394" 
d="M392 447l-15 -34s-56 14 -119 14c-65 0 -124 -13 -131 -77c-5 -47 47 -59 105 -77c93 -30 155 -50 145 -149c-10 -89 -92 -135 -183 -135c-113 0 -161 44 -161 44l18 33s63 -24 131 -24c100 0 131 37 136 86c5 50 -31 66 -105 85c-74 20 -154 48 -145 134
c10 94 93 131 183 131c78 0 141 -31 141 -31z" />
    <glyph glyph-name="t" unicode="t" horiz-adv-x="343" 
d="M326 61l9 -35s-56 -37 -108 -37c-80 0 -120 48 -108 157l28 267h-84l5 53h84l6 51c6 63 28 114 28 114h45l-18 -165h118l-5 -53c-51 0 -90 3 -117 7l-29 -274c-10 -90 20 -107 58 -107c39 0 88 22 88 22z" />
    <glyph glyph-name="u" unicode="u" horiz-adv-x="457" 
d="M199 -11c-113 0 -142 84 -128 211l27 266h60l-27 -266c-10 -86 10 -160 78 -160c55 0 103 39 151 94l34 332h61l-48 -466h-49s-2 36 -2 71c-32 -34 -89 -82 -157 -82z" />
    <glyph glyph-name="v" unicode="v" horiz-adv-x="408" 
d="M110 466l108 -367l176 367h62l-223 -466h-51l-134 466h62z" />
    <glyph glyph-name="w" unicode="w" horiz-adv-x="624" 
d="M328 422h56l81 -314l148 358h59l-192 -466h-49l-85 327l-153 -327h-49l-96 466h59l74 -358z" />
    <glyph glyph-name="z" unicode="z" horiz-adv-x="378" 
d="M72 411l5 55h326l-5 -54l-300 -357h265l-5 -55h-338l5 54l300 357h-253z" />
    <glyph glyph-name="zero" unicode="0" horiz-adv-x="565" 
d="M356 711c160 0 232 -111 205 -362c-26 -250 -121 -362 -281 -362s-230 112 -204 362c27 251 120 362 280 362zM287 48c110 0 177 80 200 301c24 222 -27 302 -137 302s-177 -80 -201 -302c-23 -221 28 -301 138 -301z" />
    <glyph glyph-name="one" unicode="1" horiz-adv-x="269" 
d="M251 700h41l-73 -700h-66l66 629l-138 -42l5 48z" />
    <glyph glyph-name="two" unicode="2" horiz-adv-x="466" 
d="M491 527c-24 -223 -317 -252 -391 -466h334l-6 -61h-398l6 61c22 212 366 286 385 463c8 81 -13 126 -127 126c-85 0 -163 -56 -163 -56l-21 42s88 75 203 75c128 0 191 -62 178 -184z" />
    <glyph glyph-name="three" unicode="3" horiz-adv-x="486" 
d="M281 415c60 0 216 -21 195 -220c-13 -128 -113 -208 -247 -208c-130 0 -204 61 -204 61l22 41s66 -43 176 -43c139 0 176 80 183 151c9 87 -13 158 -126 158h-108l4 39l236 245h-303l6 61h385l-6 -61l-217 -224h4z" />
    <glyph glyph-name="four" unicode="4" horiz-adv-x="492" 
d="M499 258l-7 -61h-69l-20 -197h-64l20 197h-319l7 61l308 454h71l-308 -454h248l21 208h64l-21 -208h69z" />
    <glyph glyph-name="five" unicode="5" horiz-adv-x="478" 
d="M159 700h353l-6 -61h-295l-42 -223c18 11 64 27 114 27c113 0 203 -76 188 -221c-14 -129 -124 -235 -257 -235c-130 0 -179 61 -179 61l25 41s37 -43 148 -43c139 0 185 112 191 172c11 104 -24 166 -126 166c-86 0 -140 -42 -140 -42l-39 8z" />
    <glyph glyph-name="six" unicode="6" horiz-adv-x="497" 
d="M252 -13c-189 0 -196 173 -176 358c28 271 167 366 289 366c86 0 140 -56 140 -56l-27 -37s-39 37 -107 37c-144 0 -214 -118 -233 -295l-2 -23h3c20 37 82 98 173 98c119 0 192 -82 177 -219c-15 -141 -122 -229 -237 -229zM318 378c-126 0 -179 -117 -188 -141
c-1 -104 23 -195 128 -195c74 0 155 55 167 174c11 98 -33 162 -107 162z" />
    <glyph glyph-name="seven" unicode="7" horiz-adv-x="455" 
d="M93 700h415l-6 -61l-273 -639h-70l273 639h-345z" />
    <glyph glyph-name="eight" unicode="8" horiz-adv-x="515" 
d="M361 376c101 -57 146 -110 137 -204c-12 -112 -100 -185 -244 -185c-143 0 -213 71 -202 180c13 123 137 190 178 208c-76 46 -113 94 -105 174c9 85 78 162 206 162c122 0 181 -70 171 -165c-9 -89 -99 -148 -141 -170zM189 549c-7 -70 42 -107 119 -144c1 0 2 -1 3 -1
c40 15 120 61 129 139c8 76 -40 111 -115 111c-65 0 -128 -28 -136 -105zM261 45c115 0 164 54 172 127c7 73 -27 115 -141 169c-3 2 -7 4 -11 6c-34 -13 -155 -74 -165 -172c-7 -70 25 -130 145 -130z" />
    <glyph glyph-name="nine" unicode="9" horiz-adv-x="497" 
d="M317 711c189 0 196 -173 177 -358c-29 -271 -168 -366 -290 -366c-86 0 -140 56 -140 56l27 37s39 -37 107 -37c144 0 214 118 233 295l2 23h-3c-19 -37 -82 -98 -173 -98c-119 0 -191 82 -177 219c15 141 122 229 237 229zM251 320c126 0 179 117 188 141
c1 104 -23 195 -128 195c-74 0 -154 -55 -167 -174c-10 -98 33 -162 107 -162z" />
    <glyph glyph-name="Euro" unicode="&#x20ac;" horiz-adv-x="542" 
d="M358 48c90 0 146 45 146 45l23 -38s-55 -68 -194 -68c-113 0 -214 66 -214 274h-92l19 48h74c1 11 2 22 4 34c1 13 2 26 4 38h-88l19 48h78c48 221 174 282 266 282c114 0 158 -62 158 -62l-28 -36s-41 38 -114 38c-96 0 -175 -57 -211 -222h289l-19 -48h-278
c-3 -12 -4 -25 -5 -38c-2 -12 -3 -23 -4 -34h265l-19 -48h-247c0 -154 59 -213 168 -213z" />
    <glyph glyph-name="dollar" unicode="$" horiz-adv-x="477" 
d="M303 389c130 -46 173 -106 162 -213c-11 -100 -90 -177 -204 -187l-8 -80h-48l8 80c-129 7 -178 65 -178 65l27 38s68 -43 156 -43h2l29 283c-96 37 -163 94 -152 192c11 111 94 175 192 187l7 65h48l-7 -64c97 -5 155 -45 155 -45l-25 -43s-61 28 -133 28h-3zM166 529
c-7 -65 29 -97 91 -123l26 242c-63 -11 -109 -44 -117 -119zM268 53c91 15 123 72 129 130c6 55 -17 97 -101 132z" />
    <glyph glyph-name="ampersand" unicode="&#x26;" horiz-adv-x="623" 
d="M589 333c-8 -85 -32 -151 -67 -202l95 -91l-31 -39c-26 14 -62 44 -102 82c-66 -67 -152 -96 -232 -96c-147 0 -216 72 -204 186c9 93 77 146 175 213c-42 63 -68 121 -63 173c11 106 96 152 184 152c84 0 152 -46 143 -131c-8 -83 -70 -132 -183 -203
c26 -36 56 -71 85 -104l94 -101c36 58 51 122 55 161h51zM338 655c-72 0 -107 -36 -113 -91c-5 -44 18 -96 53 -149c80 56 144 93 151 162c6 52 -37 78 -91 78zM262 43c82 0 142 34 183 79l-109 121c-30 35 -59 70 -84 103c-77 -54 -132 -100 -139 -172
c-9 -88 55 -131 149 -131z" />
    <glyph glyph-name="trademark" unicode="&#x2122;" horiz-adv-x="588" 
d="M470 501l125 199h46l-31 -295h-46l22 204l-101 -159h-38l-75 162l-22 -207h-46l31 295h46zM69 659l4 41h234l-4 -41h-94l-27 -254h-47l27 254h-93z" />
    <glyph glyph-name="copyright" unicode="&#xa9;" horiz-adv-x="766" 
d="M421 157c67 0 105 31 105 31l19 -31s-52 -49 -141 -49c-90 0 -185 59 -167 233c20 186 134 241 216 241c73 0 123 -46 123 -46l-20 -30s-42 27 -97 27c-84 0 -148 -44 -164 -192c-14 -137 34 -184 126 -184zM457 711c195 0 340 -128 315 -362
c-24 -230 -204 -362 -391 -362c-183 0 -339 129 -315 362c25 237 207 362 391 362zM385 21c163 0 319 107 342 328s-119 327 -273 327s-321 -106 -344 -327s110 -328 275 -328z" />
    <glyph glyph-name="registered" unicode="&#xae;" horiz-adv-x="766" 
d="M583 442c-7 -66 -45 -110 -111 -128l77 -196h-54l-75 188c-8 -1 -17 -1 -26 -1h-62l-20 -187h-51l48 456h113c112 0 170 -42 161 -132zM393 351c67 0 132 17 140 91c8 77 -57 86 -121 86h-57l-19 -177h57zM457 711c195 0 340 -128 315 -362c-24 -230 -204 -362 -391 -362
c-183 0 -339 129 -315 362c25 237 207 362 391 362zM385 21c163 0 319 107 342 328s-119 327 -273 327s-321 -106 -344 -327s110 -328 275 -328z" />
    <glyph glyph-name="at" unicode="@" horiz-adv-x="854" 
d="M431 -23c114 0 225 51 293 124l26 -26c-88 -102 -212 -150 -324 -150c-215 0 -390 139 -361 412c29 279 265 442 478 442c231 0 348 -140 327 -336c-21 -204 -165 -337 -254 -337c-27 0 -79 13 -61 115c0 0 -49 -115 -161 -115c-77 0 -150 62 -135 206
c16 146 130 290 268 290c53 0 84 -18 103 -35l6 23h59l-80 -350c-9 -37 -18 -79 14 -79c42 0 169 69 191 282c20 188 -109 286 -282 286c-153 0 -383 -120 -412 -392c-27 -260 149 -360 305 -360zM584 358l35 159c-26 27 -63 33 -98 33c-107 0 -184 -116 -196 -233
c-8 -73 -1 -156 83 -156c108 0 176 197 176 197z" />
    <glyph glyph-name="exclam" unicode="!" horiz-adv-x="202" 
d="M155 36c-3 -27 -28 -49 -56 -49s-49 22 -46 49s28 49 56 49s49 -22 46 -49zM209 700l-24 -232c-11 -106 -45 -326 -45 -326h-50s15 220 26 326l24 232h69z" />
    <glyph glyph-name="period" unicode="." horiz-adv-x="162" 
d="M135 36c-3 -27 -27 -49 -56 -49c-28 0 -49 22 -46 49s28 49 56 49c29 0 49 -22 46 -49z" />
    <glyph glyph-name="comma" unicode="," 
d="M74 -13c-26 2 -43 23 -41 49c3 27 28 49 56 49s49 -22 46 -49c0 -18 -5 -38 -14 -59c-20 -49 -73 -86 -73 -86l-22 22s36 32 48 74z" />
    <glyph glyph-name="guillemotleft" unicode="&#xab;" horiz-adv-x="382" 
d="M277 473l-162 -237l109 -231l-30 -17s-55 54 -149 252c136 199 200 253 200 253zM364 22l-36 -20s-48 40 -142 239c136 199 193 238 193 238l27 -17l-149 -217z" />
    <glyph glyph-name="paragraph" unicode="&#xb6;" horiz-adv-x="462" 
d="M304 700h181l-96 -917h-56l90 856h-69l-90 -856h-56l56 532c-97 0 -193 79 -181 191c12 120 124 194 221 194z" />
    <glyph glyph-name="parenright" unicode=")" horiz-adv-x="260" 
d="M179 267c29 283 -103 413 -103 413l27 30s181 -100 145 -443s-238 -443 -238 -443l-20 30s159 130 189 413z" />
    <glyph glyph-name="asterisk" unicode="*" horiz-adv-x="377" 
d="M132 438c25 38 56 73 79 96h-125l5 55c44 0 87 -6 117 -12l-51 108l50 28c18 -38 30 -79 38 -108l73 108l45 -28c-25 -38 -56 -72 -79 -96h124l-5 -55c-44 0 -87 6 -116 12l51 -108l-51 -27c-18 38 -30 78 -37 107l-74 -107z" />
    <glyph glyph-name="bracketleft" unicode="[" horiz-adv-x="261" 
d="M238 -167h-206l91 867h206l-6 -58h-143l-79 -751h143z" />
    <glyph glyph-name="bracketright" unicode="]" horiz-adv-x="261" 
d="M193 -167h-205l6 58h142l79 751h-143l6 58h206z" />
    <glyph glyph-name="percent" unicode="%" horiz-adv-x="842" 
d="M283 711c90 0 169 -71 154 -208c-14 -137 -109 -207 -200 -207c-90 0 -169 70 -155 207c15 137 110 208 201 208zM242 351c71 0 119 41 130 152c12 111 -30 152 -95 152c-62 0 -118 -41 -130 -152c-11 -111 27 -152 95 -152zM677 402c91 0 169 -71 155 -208
c-15 -137 -111 -207 -201 -207s-169 70 -154 207c14 137 110 208 200 208zM637 42c71 0 118 41 130 152s-30 152 -96 152c-61 0 -117 -41 -129 -152s26 -152 95 -152zM795 700l-601 -700h-75l602 700h74z" />
    <glyph glyph-name="equal" unicode="=" horiz-adv-x="500" 
d="M66 438h460l-7 -61h-460zM43 222h460l-6 -60h-460z" />
    <glyph glyph-name="plus" unicode="+" horiz-adv-x="500" 
d="M316 331h198l-6 -61h-198l-21 -199h-64l21 199h-198l6 61h198l21 199h64z" />
    <glyph glyph-name="hyphen" unicode="-" horiz-adv-x="340" 
d="M50 291h300l-6 -61h-300z" />
    <glyph glyph-name="notequal" unicode="&#x2260;" horiz-adv-x="580" 
d="M216 151l-76 -78h-81l77 78h-101l7 61h153l171 175h-306l7 61h358l79 81h81l-79 -81h101l-7 -61h-154l-170 -175h306l-7 -61h-359z" />
    <glyph glyph-name="divide" unicode="&#xf7;" horiz-adv-x="580" 
d="M54 331h540l-6 -61h-540zM390 503c-2 -25 -25 -46 -52 -46s-47 21 -45 46c3 26 27 47 54 47s46 -21 43 -47zM348 98c-3 -26 -26 -47 -53 -47s-47 21 -44 47s27 46 54 46s46 -20 43 -46z" />
    <glyph glyph-name="plusminus" unicode="&#xb1;" horiz-adv-x="580" 
d="M369 453h238l-6 -61h-238l-21 -198h-64l21 198h-238l6 61h238l21 198h64zM31 114h540l-6 -61h-540z" />
    <glyph glyph-name="lessequal" unicode="&#x2264;" horiz-adv-x="587" 
d="M160 345l415 -173l-7 -67l-505 214l5 50l549 204l-8 -69zM36 61h527l-6 -61h-527z" />
    <glyph glyph-name="greaterequal" unicode="&#x2265;" horiz-adv-x="587" 
d="M499 345l-417 159l8 69l505 -204l-5 -50l-549 -214l7 67zM36 61h527l-6 -61h-527z" />
    <glyph glyph-name="multiply" unicode="&#xd7;" horiz-adv-x="522" 
d="M297 346l216 196l41 -45l-217 -196l176 -196l-50 -45l-176 196l-216 -196l-40 45l216 196l-175 196l49 45z" />
    <glyph glyph-name="A" unicode="A" horiz-adv-x="569" 
d="M481 0l-51 212h-257l-89 -212h-64l295 700h64l170 -700h-68zM197 269h219l-80 330z" />
    <glyph glyph-name="C" unicode="C" horiz-adv-x="558" 
d="M352 48c105 0 175 46 175 46l16 -39s-81 -68 -220 -68c-141 0 -276 83 -247 356c30 291 193 368 321 368c114 0 194 -62 194 -62l-24 -39s-68 40 -154 40c-132 0 -242 -76 -266 -307c-23 -215 61 -295 205 -295z" />
    <glyph glyph-name="E" unicode="E" horiz-adv-x="492" 
d="M462 0h-412l73 700h408l-6 -61h-345l-26 -247h294l-7 -61h-294l-28 -270h349z" />
    <glyph glyph-name="M" unicode="M" horiz-adv-x="730" 
d="M113 0h-63l73 700h63l207 -494l296 494h64l-73 -700h-64l58 559l-259 -427h-58l-185 435z" />
    <glyph glyph-name="O" unicode="O" horiz-adv-x="647" 
d="M398 711c160 0 271 -112 245 -362s-161 -362 -321 -362s-272 112 -246 362s162 362 322 362zM329 48c110 0 220 80 243 301s-70 301 -180 301s-221 -80 -244 -301s71 -301 181 -301z" />
    <glyph glyph-name="P" unicode="P" horiz-adv-x="533" 
d="M123 700h183c173 0 263 -66 249 -204c-14 -134 -112 -210 -292 -210h-117l-30 -286h-66zM486 496c13 130 -88 143 -186 143h-117l-31 -292h117c102 0 203 18 217 149z" />
    <glyph glyph-name="T" unicode="T" horiz-adv-x="521" 
d="M93 700h481l-6 -61h-209l-67 -639h-63l67 639h-209z" />
    <glyph glyph-name="afii10071" unicode="&#x451;" horiz-adv-x="428" 
d="M238 553c-3 -23 -24 -41 -47 -41c-24 0 -41 18 -38 41c2 23 23 41 47 41c23 0 40 -18 38 -41zM412 553c-3 -23 -24 -41 -48 -41c-23 0 -41 18 -38 41c2 23 24 41 47 41c24 0 41 -18 39 -41zM290 478c95 0 154 -36 144 -131c-9 -82 -76 -128 -201 -128h-119
c-13 -123 66 -177 140 -177c79 0 129 23 129 23l10 -35s-66 -41 -156 -41c-122 0 -200 87 -184 239c17 157 127 250 237 250zM373 348c6 55 -28 80 -89 80c-70 0 -140 -58 -165 -172c-2 0 73 13 119 13c91 0 130 34 135 79z" />
    <glyph glyph-name="a" unicode="a" horiz-adv-x="443" 
d="M56 200c15 147 104 278 234 278c93 0 148 -46 148 -46l-45 -432h-49s-3 36 -2 71c-34 -32 -99 -76 -157 -76c-96 0 -145 60 -129 205zM117 200c-13 -120 21 -154 77 -154c43 0 101 33 151 87l29 274c-21 9 -45 17 -78 17c-97 0 -166 -98 -179 -224z" />
    <glyph glyph-name="c" unicode="c" horiz-adv-x="396" 
d="M245 40c73 0 125 27 125 27l9 -37s-58 -41 -155 -41c-106 0 -187 86 -170 240c16 153 114 249 221 249c87 0 136 -41 136 -41l-16 -37s-48 26 -111 26c-87 0 -158 -82 -170 -197c-12 -113 44 -189 131 -189z" />
    <glyph glyph-name="e" unicode="e" horiz-adv-x="428" 
d="M290 478c95 0 154 -36 144 -131c-9 -82 -76 -128 -201 -128h-119c-13 -123 66 -177 140 -177c79 0 129 23 129 23l10 -35s-66 -41 -156 -41c-122 0 -200 87 -184 239c17 157 127 250 237 250zM373 348c6 55 -28 80 -89 80c-70 0 -140 -58 -165 -172c-2 0 73 13 119 13
c91 0 130 34 135 79z" />
    <glyph glyph-name="o" unicode="o" horiz-adv-x="477" 
d="M290 478c106 0 198 -83 181 -245c-17 -161 -130 -244 -236 -244s-198 83 -181 244c17 162 130 245 236 245zM241 42c84 0 153 61 167 191c14 131 -47 192 -124 192c-73 0 -153 -61 -167 -192c-14 -130 43 -191 124 -191z" />
    <glyph glyph-name="p" unicode="p" horiz-adv-x="448" 
d="M27 -217l71 683h49s3 -36 2 -70c32 34 88 82 156 82c123 0 151 -110 139 -226c-21 -201 -118 -263 -237 -263c-41 0 -76 18 -94 34l-25 -240h-61zM380 252c9 87 -7 175 -86 175c-54 0 -101 -40 -149 -95l-27 -257c16 -15 44 -36 91 -36c75 0 151 19 171 213z" />
    <glyph glyph-name="x" unicode="x" horiz-adv-x="398" 
d="M225 292h8l133 174h69l-171 -225l134 -241h-71l-108 193l-148 -193h-71l184 241l-125 225h69z" />
    <glyph glyph-name="y" unicode="y" horiz-adv-x="408" 
d="M393 466h63l-222 -540c-38 -92 -86 -146 -161 -146c-33 0 -63 15 -81 37l24 34c13 -8 35 -19 59 -19c47 0 77 47 101 109l24 59h-41l-111 466h66l102 -428z" />
    <glyph glyph-name="X" unicode="X" horiz-adv-x="550" 
d="M313 413h10l217 287h77l-262 -347l195 -353h-77l-167 301l-229 -301h-77l269 353l-190 347h77z" />
    <glyph glyph-name="afii10034" unicode="&#x420;" horiz-adv-x="533" 
d="M123 700h183c173 0 263 -66 249 -204c-14 -134 -112 -210 -292 -210h-117l-30 -286h-66zM486 496c13 130 -88 143 -186 143h-117l-31 -292h117c102 0 203 18 217 149z" />
    <glyph glyph-name="afii10087" unicode="&#x445;" horiz-adv-x="398" 
d="M225 292h8l133 174h69l-171 -225l134 -241h-71l-108 193l-148 -193h-71l184 241l-125 225h69z" />
    <glyph glyph-name="afii10085" unicode="&#x443;" horiz-adv-x="408" 
d="M393 466h63l-222 -540c-38 -92 -86 -146 -161 -146c-33 0 -63 15 -81 37l24 34c13 -8 35 -19 59 -19c47 0 77 47 101 109l24 59h-41l-111 466h66l102 -428z" />
    <glyph glyph-name="B" unicode="B" horiz-adv-x="558" 
d="M541 527c-15 -141 -132 -149 -132 -149v-3s146 -15 130 -173c-14 -127 -83 -202 -263 -202h-226l73 700h204c174 0 224 -74 214 -173zM180 640l-26 -241h155c84 0 158 44 167 128c9 83 -43 113 -155 113h-141zM282 61c98 0 174 11 188 141c10 100 -56 136 -146 136h-176
l-29 -277h163z" />
    <glyph glyph-name="H" unicode="H" horiz-adv-x="595" 
d="M522 391l32 309h64l-73 -700h-64l34 330h-368l-34 -330h-63l73 700h63l-32 -309h368z" />
    <glyph glyph-name="question" unicode="?" horiz-adv-x="432" 
d="M239 36c-3 -27 -28 -49 -56 -49s-49 22 -46 49s28 49 56 49s49 -22 46 -49zM465 512c-21 -202 -219 -180 -239 -370h-54c24 229 205 193 223 367c9 88 -38 141 -135 141c-85 0 -163 -56 -163 -56l-21 42s88 75 203 75c127 0 199 -75 186 -199z" />
    <glyph glyph-name="afii10023" unicode="&#x401;" horiz-adv-x="492" 
d="M462 0h-412l73 700h408l-6 -61h-345l-26 -247h294l-7 -61h-294l-28 -270h349zM296 801c-3 -23 -24 -41 -47 -41c-24 0 -41 18 -38 41c2 23 23 41 47 41c23 0 40 -18 38 -41zM470 801c-3 -23 -24 -41 -48 -41c-23 0 -41 18 -38 41c2 23 24 41 47 41c24 0 41 -18 39 -41z
" />
    <glyph glyph-name="afii61352" unicode="&#x2116;" horiz-adv-x="996" 
d="M558 0h-71l-312 598l-62 -598h-63l73 700h71l311 -598l63 598h63zM864 711c90 0 169 -71 154 -208c-14 -137 -109 -207 -200 -207c-90 0 -169 70 -155 207c15 137 110 208 201 208zM823 351c71 0 119 41 130 152c12 111 -30 152 -95 152c-62 0 -118 -41 -130 -152
c-11 -111 27 -152 95 -152zM657 250h315l-7 -61h-315z" />
    <glyph glyph-name="less" unicode="&#x3c;" horiz-adv-x="510" 
d="M49 285l496 242l-7 -66l-411 -201l369 -201l-7 -66l-445 242z" />
    <glyph glyph-name="greater" unicode="&#x3e;" horiz-adv-x="510" 
d="M75 527l444 -242l-5 -50l-495 -242l7 66l411 201l-369 201z" />
    <glyph glyph-name="guilsinglleft" unicode="&#x2039;" horiz-adv-x="510" 
d="M49 285l496 242l-7 -66l-411 -201l369 -201l-7 -66l-445 242z" />
    <glyph glyph-name="guilsinglright" unicode="&#x203a;" horiz-adv-x="510" 
d="M75 527l444 -242l-5 -50l-495 -242l7 66l411 201l-369 201z" />
    <glyph glyph-name="colon" unicode=":" horiz-adv-x="162" 
d="M135 36c-3 -27 -27 -49 -56 -49c-28 0 -49 22 -46 49s28 49 56 49c29 0 49 -22 46 -49zM177 429c-3 -27 -28 -49 -57 -49c-28 0 -48 22 -45 49c2 27 28 49 56 49c29 0 48 -22 46 -49z" />
    <glyph glyph-name="semicolon" unicode=";" 
d="M177 429c-3 -27 -28 -49 -57 -49c-28 0 -48 22 -45 49c2 27 28 49 56 49c29 0 48 -22 46 -49zM74 -13c-26 2 -43 23 -41 49c3 27 28 49 56 49s49 -22 46 -49c0 -18 -5 -38 -14 -59c-20 -49 -73 -86 -73 -86l-22 22s36 32 48 74z" />
    <glyph glyph-name="quotedbl" unicode="&#x22;" horiz-adv-x="278" 
d="M151 394h-39s-11 96 11 306h60zM248 394h-39l32 306h60c-22 -210 -53 -306 -53 -306z" />
    <glyph glyph-name="quotesingle" unicode="'" horiz-adv-x="161" 
d="M149 394h-55l29 306h61z" />
    <glyph glyph-name="section" unicode="&#xa7;" horiz-adv-x="432" 
d="M425 316c-5 -46 -28 -80 -58 -104c17 -21 27 -49 23 -88c-10 -89 -92 -135 -183 -135c-113 0 -161 44 -161 44l18 33s63 -24 131 -24c100 0 131 42 136 86c14 135 -270 72 -251 259c5 47 27 81 57 104c-17 21 -26 49 -22 88c10 94 93 132 183 132c78 0 142 -31 142 -31
l-16 -34s-55 14 -118 14c-65 0 -125 -19 -131 -78c-15 -135 269 -79 250 -266zM366 320c10 96 -112 96 -189 139c-20 -18 -35 -41 -38 -69c-9 -95 108 -99 185 -143c22 18 39 42 42 73z" />
    <glyph glyph-name="asciicircum" unicode="^" horiz-adv-x="350" 
d="M223 700h50l125 -240h-66l-91 175l-127 -175h-66z" />
    <glyph glyph-name="underscore" unicode="_" horiz-adv-x="300" 
d="M0 0h300l-7 -61h-299z" />
    <glyph glyph-name="slash" unicode="/" horiz-adv-x="393" 
d="M466 700l-403 -700h-63l403 700h63z" />
    <glyph glyph-name="backslash" unicode="\" horiz-adv-x="393" 
d="M330 0l-257 700h63l257 -700h-63z" />
    <glyph glyph-name="numbersign" unicode="#" horiz-adv-x="675" 
d="M128 500h144l73 200h63l-73 -200h185l73 200h63l-73 -200h134l-6 -61h-149l-65 -178h129l-6 -61h-145l-72 -200h-63l72 200h-185l-72 -200h-63l72 200h-133l6 61h149l65 178h-129zM314 439l-65 -178h185l65 178h-185z" />
    <glyph glyph-name="perthousand" unicode="&#x2030;" horiz-adv-x="1237" 
d="M283 711c90 0 169 -71 154 -208c-14 -137 -109 -207 -200 -207c-90 0 -169 70 -155 207c15 137 110 208 201 208zM242 351c71 0 119 41 130 152c12 111 -30 152 -95 152c-62 0 -118 -41 -130 -152c-11 -111 27 -152 95 -152zM677 402c91 0 169 -71 155 -208
c-15 -137 -111 -207 -201 -207s-169 70 -154 207c14 137 110 208 200 208zM637 42c71 0 118 41 130 152s-30 152 -96 152c-61 0 -117 -41 -129 -152s26 -152 95 -152zM795 700l-601 -700h-75l602 700h74zM1072 403c91 0 169 -71 155 -208s-111 -207 -201 -207
s-168 70 -154 207s110 208 200 208zM1032 43c71 0 118 41 130 152s-30 152 -96 152c-61 0 -117 -41 -129 -152s26 -152 95 -152z" />
    <glyph glyph-name="grave" unicode="`" horiz-adv-x="221" 
d="M273 500h-61l-139 200h87z" />
    <glyph glyph-name="afii10101" unicode="&#x454;" horiz-adv-x="390" 
d="M215 478c107 0 186 -83 170 -235c-17 -166 -118 -254 -225 -254c-91 0 -137 41 -137 41l17 37s42 -27 116 -27c90 0 144 71 162 181h-211l5 49c114 0 178 -8 209 -14c8 107 -43 170 -127 170c-63 0 -115 -26 -115 -26l-10 37s59 41 146 41z" />
    <glyph glyph-name="afii10105" unicode="&#x458;" horiz-adv-x="195" 
d="M78 0l48 466h61l-48 -466c-9 -77 -26 -223 -176 -231l-3 38c71 19 104 66 118 193zM205 579c-2 -20 -19 -35 -39 -35c-21 0 -36 15 -34 35c2 19 20 35 41 35c20 0 34 -16 32 -35z" />
    <glyph glyph-name="afii10054" unicode="&#x405;" horiz-adv-x="533" 
d="M546 666l-18 -43s-78 27 -170 27c-97 0 -182 -28 -192 -123c-9 -84 71 -107 155 -135c137 -47 213 -95 200 -217c-13 -120 -114 -188 -250 -188c-167 0 -236 65 -236 65l24 42s91 -46 192 -46c148 0 193 61 201 133c7 73 -49 106 -156 143s-212 76 -200 199
c13 122 114 188 247 188c116 0 203 -45 203 -45z" />
    <glyph glyph-name="afii10102" unicode="&#x455;" horiz-adv-x="394" 
d="M392 447l-15 -34s-56 14 -119 14c-65 0 -124 -13 -131 -77c-5 -47 47 -59 105 -77c93 -30 155 -50 145 -149c-10 -89 -92 -135 -183 -135c-113 0 -161 44 -161 44l18 33s63 -24 131 -24c100 0 131 37 136 86c5 50 -31 66 -105 85c-74 20 -154 48 -145 134
c10 94 93 131 183 131c78 0 141 -31 141 -31z" />
    <glyph glyph-name="afii10055" unicode="&#x406;" 
d="M186 700l-73 -700h-63l73 700h63z" />
    <glyph glyph-name="afii10103" unicode="&#x456;" horiz-adv-x="173" 
d="M104 466h61l-48 -466h-61zM183 579c-2 -20 -19 -35 -39 -35s-36 15 -34 35c2 19 21 35 41 35s34 -16 32 -35z" />
    <glyph glyph-name="degree" unicode="&#xb0;" horiz-adv-x="395" 
d="M273 711c90 0 169 -71 154 -208c-14 -137 -109 -207 -200 -207c-90 0 -169 70 -155 207c15 137 110 208 201 208zM232 351c71 0 119 41 130 152c12 111 -30 152 -95 152c-62 0 -118 -41 -130 -152c-11 -111 27 -152 95 -152z" />
    <glyph glyph-name="braceleft" unicode="{" horiz-adv-x="299" 
d="M56 248l4 44c36 0 86 20 94 97l17 154c11 109 61 157 141 157h55l-5 -50h-48c-38 0 -71 -17 -80 -107l-15 -141c-13 -118 -80 -132 -80 -132s64 -14 52 -132l-15 -141c-9 -90 20 -107 58 -107h48l-5 -50h-55c-80 0 -120 48 -109 157l16 154c8 77 -37 97 -73 97z" />
    <glyph glyph-name="braceright" unicode="}" horiz-adv-x="299" 
d="M299 292l-4 -44c-36 0 -87 -20 -95 -97l-16 -154c-11 -109 -61 -157 -141 -157h-54l5 50h47c38 0 71 17 80 107l15 141c12 118 80 132 80 132s-65 14 -52 132l15 141c9 90 -20 107 -58 107h-48l5 50h55c80 0 120 -48 109 -157l-17 -154c-8 -77 38 -97 74 -97z" />
    <glyph glyph-name="bar" unicode="|" 
d="M193 770l-88 -840h-63l88 840h63z" />
    <glyph glyph-name="afii10053" unicode="&#x404;" horiz-adv-x="557" 
d="M317 711c128 0 268 -63 237 -354c-29 -273 -171 -370 -312 -370c-139 0 -217 68 -217 68l23 39s73 -46 178 -46c138 0 227 86 253 281h-319l6 60h319c14 205 -71 261 -197 261c-85 0 -162 -40 -162 -40l-15 39s91 62 206 62z" />
    <glyph glyph-name="endash" unicode="&#x2013;" horiz-adv-x="548" 
d="M50 291h508l-6 -61h-508z" />
    <glyph glyph-name="hyphen.001" horiz-adv-x="340" 
d="M50 291h300l-6 -61h-300z" />
    <glyph glyph-name="emdash" unicode="&#x2014;" horiz-adv-x="670" 
d="M50 291h630l-6 -61h-630z" />
    <glyph glyph-name="quotedblright" unicode="&#x201d;" horiz-adv-x="276" 
d="M154 394h-39s-16 76 8 306h63zM299 700l-32 -306h-58l32 306h58z" />
    <glyph glyph-name="quotedblleft" unicode="&#x201c;" horiz-adv-x="279" 
d="M149 700h34l-32 -306h-60c25 229 58 306 58 306zM241 700h61l-32 -306h-61z" />
    <glyph glyph-name="quoteleft" unicode="&#x2018;" horiz-adv-x="160" 
d="M149 700h34l-32 -306h-60c25 229 58 306 58 306z" />
    <glyph glyph-name="quoteright" unicode="&#x2019;" 
d="M154 394h-39s-16 76 8 306h63z" />
    <glyph glyph-name="quotedblbase" unicode="&#x201e;" horiz-adv-x="276" 
d="M94 -176h-39s-16 76 8 306h63zM239 130l-32 -306h-58l32 306h58z" />
    <glyph glyph-name="quotesinglbase" unicode="&#x201a;" 
d="M94 -176h-39s-16 76 8 306h63z" />
    <glyph glyph-name="ellipsis" unicode="&#x2026;" horiz-adv-x="566" 
d="M135 36c-3 -27 -27 -49 -56 -49c-28 0 -49 22 -46 49s28 49 56 49c29 0 49 -22 46 -49zM337 36c-3 -27 -27 -49 -56 -49c-28 0 -49 22 -46 49s28 49 56 49c29 0 49 -22 46 -49zM539 36c-3 -27 -27 -49 -56 -49c-28 0 -49 22 -46 49s28 49 56 49c29 0 49 -22 46 -49z" />
    <glyph glyph-name="afii10057" unicode="&#x408;" horiz-adv-x="226" 
d="M136 219l50 481h63l-50 -481c-9 -77 -42 -224 -194 -232l-2 46c72 20 119 59 133 186z" />
    <glyph glyph-name="afii10062" unicode="&#x40e;" horiz-adv-x="573" 
d="M556 700h70l-281 -575c-42 -86 -87 -138 -161 -138c-36 0 -70 17 -93 41l22 37s32 -20 68 -20c37 0 66 19 104 98l1 5l-193 552h70l164 -469zM476 857h61c-7 -65 -65 -129 -168 -129c-117 0 -148 64 -141 129h61c-4 -36 17 -76 86 -76c65 0 97 41 101 76z" />
    <glyph glyph-name="afii10110" unicode="&#x45e;" horiz-adv-x="408" 
d="M393 466h63l-222 -540c-38 -92 -86 -146 -161 -146c-33 0 -63 15 -81 37l24 34c13 -8 35 -19 59 -19c47 0 77 47 101 109l24 59h-41l-111 466h66l102 -428zM348 624h53c-6 -56 -55 -112 -142 -112c-100 0 -124 56 -118 112h52c-3 -31 13 -69 71 -69s81 39 84 69z" />
    <glyph glyph-name="brokenbar" unicode="&#xa6;" 
d="M193 770l-37 -360h-63l37 360h63zM105 -70h-63l38 360h63z" />
    <glyph glyph-name="dagger" unicode="&#x2020;" horiz-adv-x="403" 
d="M74 521h150l26 249h63l-26 -249h150l-6 -61h-150l-56 -530h-63l56 530h-150z" />
    <glyph glyph-name="daggerdbl" unicode="&#x2021;" horiz-adv-x="403" 
d="M77 550h150l23 220h63l-23 -220h150l-6 -61h-150l-29 -278h150l-7 -61h-150l-23 -220h-63l23 220h-150l7 61h150l29 278h-150z" />
    <glyph glyph-name="afii10056" unicode="&#x407;" 
d="M186 700l-73 -700h-63l73 700h63zM121 801c-3 -23 -24 -41 -47 -41c-24 0 -41 18 -38 41c2 23 23 41 47 41c23 0 40 -18 38 -41zM295 801c-3 -23 -24 -41 -48 -41c-23 0 -41 18 -38 41c2 23 24 41 47 41c24 0 41 -18 39 -41z" />
    <glyph glyph-name="afii10104" unicode="&#x457;" horiz-adv-x="173" 
d="M104 466h61l-48 -466h-61zM100 553c-3 -23 -24 -41 -47 -41c-24 0 -41 18 -38 41c2 23 23 41 47 41c23 0 40 -18 38 -41zM274 553c-3 -23 -24 -41 -48 -41c-23 0 -41 18 -38 41c2 23 24 41 47 41c24 0 41 -18 39 -41z" />
    <glyph glyph-name="afii10050" unicode="&#x490;" horiz-adv-x="464" 
d="M528 800l-17 -161h-331l-67 -639h-63l73 700h331l11 100h63z" />
    <glyph glyph-name="afii10098" unicode="&#x491;" horiz-adv-x="352" 
d="M390 555l-15 -141h-221l-43 -414h-61l48 466h221l10 89h61z" />
    <glyph glyph-name="afii10061" unicode="&#x40c;" horiz-adv-x="539" 
d="M434 190c17 -92 39 -141 98 -156l-15 -47c-87 0 -135 46 -155 203c-15 123 -45 143 -120 143h-94l-34 -333h-64l73 700h64l-32 -305h86c74 0 103 8 144 129c53 160 111 187 197 187l1 -43c-64 -14 -91 -53 -126 -144c-36 -93 -63 -136 -116 -156c66 -24 77 -81 93 -178z
M344 700h-61l116 150h87z" />
    <glyph glyph-name="afii10052" unicode="&#x403;" horiz-adv-x="464" 
d="M123 700h394l-6 -61h-331l-67 -639h-63zM346 730h-61l116 150h87z" />
    <glyph glyph-name="afii10109" unicode="&#x45c;" horiz-adv-x="415" 
d="M335 144c5 -72 33 -92 74 -104l-16 -45c-73 0 -107 25 -122 149c-8 75 -42 77 -95 77h-42l-23 -221h-61l48 466h61l-20 -194h52c43 0 81 10 99 67c39 120 80 133 142 133l4 -40c-34 -11 -62 -18 -82 -94c-7 -29 -22 -51 -42 -68c-24 -18 -44 -21 -44 -21l-1 -2
s22 -3 39 -22s25 -46 29 -81zM276 476h-61l115 150h87z" />
    <glyph glyph-name="afii10100" unicode="&#x453;" horiz-adv-x="352" 
d="M50 0l48 466h282l-5 -52h-221l-43 -414h-61zM279 506h-61l115 150h87z" />
    <glyph glyph-name="afii10145" unicode="&#x40f;" horiz-adv-x="567" 
d="M50 0l73 700h64l-67 -639h340l67 639h63l-73 -700h-200l-25 -183h-57l15 183h-200z" />
    <glyph glyph-name="afii10193" unicode="&#x45f;" horiz-adv-x="454" 
d="M258 0l-21 -141h-50l9 141h-146l48 466h61l-43 -413h232l43 413h61l-48 -466h-146z" />
    <glyph glyph-name="uni00AD" unicode="&#xad;" horiz-adv-x="340" 
d="M50 291h300l-6 -61h-300z" />
    <glyph glyph-name="logicalnot" unicode="&#xac;" horiz-adv-x="434" 
d="M450 352l-16 -161h-63l10 100h-331l6 61h394z" />
    <glyph glyph-name="afii10058" unicode="&#x409;" horiz-adv-x="965" 
d="M665 0h-174l67 639h-273c-50 -474 -93 -632 -277 -651l-5 46c119 33 168 133 224 666h400l-30 -288h111c179 0 262 -70 248 -204c-14 -138 -118 -208 -291 -208zM560 61h111c98 0 203 17 216 147c14 131 -84 144 -186 144h-111z" />
    <glyph glyph-name="afii10059" unicode="&#x40a;" horiz-adv-x="956" 
d="M656 0h-175l36 352h-368l-36 -352h-63l73 700h63l-30 -287h368l30 287h64l-30 -288h111c179 0 262 -70 248 -204c-14 -138 -118 -208 -291 -208zM551 61h111c98 0 203 17 216 147c14 131 -84 144 -186 144h-111z" />
    <glyph glyph-name="afii10106" unicode="&#x459;" horiz-adv-x="707" 
d="M534 282c112 0 167 -53 157 -142c-9 -86 -77 -140 -186 -140h-160l43 414h-179c-33 -314 -81 -404 -198 -419l-7 45c79 21 115 96 149 426h301l-19 -184h99zM411 52h99c85 0 117 44 121 88c5 43 -15 91 -102 91h-99z" />
    <glyph glyph-name="afii10107" unicode="&#x45a;" horiz-adv-x="698" 
d="M525 282c112 0 167 -53 157 -142c-9 -86 -77 -140 -186 -140h-160l24 231h-226l-24 -231h-60l48 466h60l-18 -180h226l18 180h61l-19 -184h99zM402 52h99c85 0 117 44 121 88c5 43 -15 91 -102 91h-99z" />
    <glyph glyph-name="mu" unicode="&#xb5;" horiz-adv-x="457" 
d="M204 -11c-42 0 -71 18 -91 48l-26 -254h-60l71 683h60l-24 -231c-11 -106 7 -190 80 -190c50 0 98 39 146 94l34 327h61l-48 -466h-49s-2 36 -2 71c-32 -34 -89 -82 -152 -82z" />
    <glyph glyph-name="mu" unicode="&#x3bc;" horiz-adv-x="457" 
d="M204 -11c-42 0 -71 18 -91 48l-26 -254h-60l71 683h60l-24 -231c-11 -106 7 -190 80 -190c50 0 98 39 146 94l34 327h61l-48 -466h-49s-2 36 -2 71c-32 -34 -89 -82 -152 -82z" />
    <glyph glyph-name="afii10108" unicode="&#x45b;" horiz-adv-x="487" 
d="M475 269l-28 -269h-61l28 269c8 78 -2 120 -71 120c-52 0 -106 -36 -156 -88l-31 -301h-61l55 531h-85l6 53h85l12 116h61l-12 -116h117l-6 -53c-51 0 -88 2 -116 6l-18 -171c35 33 96 74 160 74c113 0 131 -73 121 -171z" />
    <glyph glyph-name="afii10099" unicode="&#x452;" horiz-adv-x="487" 
d="M399 130l15 139c8 78 -2 120 -71 120c-52 0 -106 -36 -156 -88l-31 -301h-61l55 531h-85l6 53h85l12 116h61l-12 -116h117l-6 -53c-51 0 -88 2 -116 6l-18 -171c35 33 96 74 160 74c113 0 131 -73 121 -171l-15 -139c-8 -77 -25 -223 -176 -231l-3 38
c72 19 105 66 118 193z" />
    <glyph glyph-name="afii10060" unicode="&#x40b;" horiz-adv-x="650" 
d="M245 358l-37 -358h-64l73 700h64l-31 -292s86 33 204 33c144 0 193 -81 181 -202l-25 -239h-64l25 239c10 95 -30 146 -128 146c-128 0 -198 -27 -198 -27zM73 700h374l-6 -61h-374z" />
    <glyph glyph-name="afii10051" unicode="&#x402;" horiz-adv-x="640" 
d="M73 700h374l-6 -61h-374zM559 130l12 109c10 95 -30 146 -128 146c-128 0 -198 -27 -198 -27l-37 -358h-64l73 700h64l-31 -292s86 33 204 33c144 0 193 -81 181 -202l-12 -109c-8 -77 -28 -223 -179 -231l-3 38c72 19 105 66 118 193z" />
    <glyph glyph-name="currency" unicode="&#xa4;" horiz-adv-x="553" 
d="M36 250l15 49h50l3 25h-60l15 49h50l34 327h184c172 0 262 -66 249 -191c-12 -118 -116 -185 -288 -185h-117l-3 -25h123c110 0 144 -30 179 -119l73 -180h-71l-68 168c-25 63 -58 82 -118 82h-123l-26 -250h-67l26 250h-60zM176 373h117c101 0 201 17 214 136
c12 116 -88 130 -186 130h-117z" />
    <glyph glyph-name="guillemotright" unicode="&#xbb;" horiz-adv-x="382" 
d="M54 2l-32 20l153 223l-103 217l31 17s49 -39 143 -238c-136 -199 -192 -239 -192 -239zM315 236l-112 237l36 20s54 -54 148 -253c-136 -198 -203 -252 -203 -252l-26 17z" />
    <glyph glyph-name="afii10017" unicode="&#x410;" horiz-adv-x="569" 
d="M481 0l-51 212h-257l-89 -212h-64l295 700h64l170 -700h-68zM197 269h219l-80 330z" />
    <glyph glyph-name="asciitilde" unicode="~" horiz-adv-x="517" 
d="M270 232c-41 19 -77 30 -109 30s-60 -12 -86 -40l-30 21c37 59 85 78 132 78c46 0 90 -18 124 -33c41 -19 77 -30 109 -30s60 12 86 40l30 -21c-38 -59 -86 -78 -133 -78c-46 0 -90 18 -123 33z" />
    <glyph glyph-name="periodcentered" unicode="&#xb7;" horiz-adv-x="250" 
d="M212 351c-2 -27 -27 -49 -56 -49c-28 0 -48 22 -46 49c3 27 29 49 57 49c29 0 48 -22 45 -49z" />
    <glyph glyph-name="bullet" unicode="&#x2022;" horiz-adv-x="320" 
d="M306 350c-7 -65 -56 -110 -121 -110s-106 45 -99 110s57 110 122 110s105 -45 98 -110z" />
    <glyph glyph-name="apple" horiz-adv-x="2345" 
d="M1355 160c0 -95 -75 -170 -170 -170s-170 75 -170 170s75 170 170 170s170 -75 170 -170zM850 515c0 -95 -75 -170 -170 -170s-170 75 -170 170s75 170 170 170s170 -75 170 -170zM1345 355h-320l160 320zM820 675h320l-160 -320zM485 355h-320l320 320v-320zM2025 675
h320l-160 -320zM340 0h-320v320zM2020 0h-320l160 320zM2200 160c0 -95 -75 -170 -170 -170v340c95 0 170 -75 170 -170zM1380 0v295l285 -295h-285zM1690 320v-295l-285 295h285zM2015 675v-295l-285 295h285zM1355 355v295l285 -295h-285zM1665 675v-295l-285 295h285z
M1705 355v295l285 -295h-285zM340 0v160l320 -160h-320zM990 320v-320h-160zM340 320h320l-320 -160v160zM670 320l160 -320h-160v320z" />
    <glyph glyph-name="_0127" horiz-adv-x="250" 
 />
    <glyph glyph-name="_0152" horiz-adv-x="250" 
 />
    <glyph glyph-name="uni00A0" unicode="&#xa0;" horiz-adv-x="250" 
 />
    <glyph glyph-name="parenleft" unicode="(" horiz-adv-x="260" 
d="M137 267c-30 -283 102 -413 102 -413l-27 -30s-180 100 -144 443s237 443 237 443l21 -30s-160 -130 -189 -413z" />
    <glyph glyph-name="afii10084" unicode="&#x442;" horiz-adv-x="699" 
d="M561 478c114 0 129 -83 116 -210l-28 -268h-61l28 268c9 86 3 159 -65 159c-54 0 -91 -38 -136 -93l-35 -334h-61l30 287c8 76 -3 140 -67 140c-54 0 -92 -39 -136 -93l-35 -334h-61l48 466h49s3 -34 2 -68c28 34 76 80 143 80c72 0 104 -33 115 -95c25 34 77 95 154 95z
" />
    <glyph glyph-name="afii10068" unicode="&#x433;" horiz-adv-x="394" 
d="M103 413l-9 34s71 31 149 31c90 0 165 -37 155 -131c-9 -86 -95 -114 -173 -134c-78 -19 -118 -35 -123 -85c-5 -49 18 -86 118 -86c68 0 135 24 135 24l12 -33s-58 -44 -171 -44c-91 0 -163 46 -153 135c10 99 76 119 175 149c62 18 116 30 121 77c7 64 -50 77 -115 77
c-63 0 -121 -14 -121 -14z" />
    </font>
</defs>
</svg>
